<svg xmlns="http://www.w3.org/2000/svg" width="920" height="520" viewBox="0 0 920 520">
<style>
text { font-family: -apple-system, BlinkMacSystemFont, "Segoe UI", sans-serif; fill: #1f2933; }
.title { font-size: 22px; font-weight: 700; }
.subtitle { font-size: 13px; fill: #5f6b7a; }
.label { font-size: 12px; }
.small { font-size: 11px; fill: #5f6b7a; }
.axis { stroke: #1f2933; stroke-width: 1; }
.grid { stroke: #d8dde6; stroke-width: 1; }
</style>
<text x="40.0" y="35.0" class="title" text-anchor="start">Figure 3. Raw reward amplifies reward hacking as candidate width increases</text>
<text x="40.0" y="58.0" class="subtitle" text-anchor="start">Reward-hacking rate across 21 seeds and candidate widths.</text>
<line x1="80" y1="450" x2="880" y2="450" class="grid"/>
<text x="68.0" y="454.0" class="small" text-anchor="end">0.00</text>
<line x1="80" y1="357.5" x2="880" y2="357.5" class="grid"/>
<text x="68.0" y="361.5" class="small" text-anchor="end">0.25</text>
<line x1="80" y1="265.0" x2="880" y2="265.0" class="grid"/>
<text x="68.0" y="269.0" class="small" text-anchor="end">0.50</text>
<line x1="80" y1="172.5" x2="880" y2="172.5" class="grid"/>
<text x="68.0" y="176.5" class="small" text-anchor="end">0.75</text>
<line x1="80" y1="80.0" x2="880" y2="80.0" class="grid"/>
<text x="68.0" y="84.0" class="small" text-anchor="end">1.00</text>
<line x1="80" y1="80" x2="80" y2="450" class="axis"/>
<line x1="80" y1="450" x2="880" y2="450" class="axis"/>
<text x="18.0" y="265.0" class="small" text-anchor="middle">Reward-hacking rate</text>
<text x="80.0" y="475.0" class="small" text-anchor="middle">3</text>
<text x="308.6" y="475.0" class="small" text-anchor="middle">5</text>
<text x="537.1" y="475.0" class="small" text-anchor="middle">7</text>
<text x="880.0" y="475.0" class="small" text-anchor="middle">10</text>
<text x="480.0" y="502.0" class="small" text-anchor="middle">Candidate patches per task</text>
<polyline points="80.0,450.0 308.6,153.8 537.1,155.2 880.0,149.6" fill="none" stroke="#c43b3b" stroke-width="3"/>
<circle cx="80.0" cy="450.0" r="4" fill="#c43b3b"/>
<circle cx="308.6" cy="153.8" r="4" fill="#c43b3b"/>
<circle cx="537.1" cy="155.2" r="4" fill="#c43b3b"/>
<circle cx="880.0" cy="149.6" r="4" fill="#c43b3b"/>
<text x="888.0" y="153.6" class="small" text-anchor="start">raw</text>
<polyline points="80.0,450.0 308.6,446.5 537.1,446.7 880.0,448.6" fill="none" stroke="#4f6fb5" stroke-width="3"/>
<circle cx="80.0" cy="450.0" r="4" fill="#4f6fb5"/>
<circle cx="308.6" cy="446.5" r="4" fill="#4f6fb5"/>
<circle cx="537.1" cy="446.7" r="4" fill="#4f6fb5"/>
<circle cx="880.0" cy="448.6" r="4" fill="#4f6fb5"/>
<text x="888.0" y="452.6" class="small" text-anchor="start">weighted</text>
<polyline points="80.0,450.0 308.6,444.0 537.1,447.2 880.0,448.9" fill="none" stroke="#237a57" stroke-width="3"/>
<circle cx="80.0" cy="450.0" r="4" fill="#237a57"/>
<circle cx="308.6" cy="444.0" r="4" fill="#237a57"/>
<circle cx="537.1" cy="447.2" r="4" fill="#237a57"/>
<circle cx="880.0" cy="448.9" r="4" fill="#237a57"/>
<text x="888.0" y="452.9" class="small" text-anchor="start">governed</text>
<polyline points="80.0,450.0 308.6,449.8 537.1,449.8 880.0,450.0" fill="none" stroke="#6d5aa8" stroke-width="3"/>
<circle cx="80.0" cy="450.0" r="4" fill="#6d5aa8"/>
<circle cx="308.6" cy="449.8" r="4" fill="#6d5aa8"/>
<circle cx="537.1" cy="449.8" r="4" fill="#6d5aa8"/>
<circle cx="880.0" cy="450.0" r="4" fill="#6d5aa8"/>
<text x="888.0" y="454.0" class="small" text-anchor="start">oracle</text>
</svg>
